# xmcd
#
# Track frame offsets:
#	150
#	13788
#	25643
#	48985
#	60303
#	79003
#	92968
#	103635
#	114835
#	126665
#	141108
#	155468
#	169135
#	185035
#	205303
#	219258
#	233313
#
# Disc length: 3415
#
# Revision: 2
# Processed by: cddbd v1.5.1PL0 Copyright (c) Steve Scherf et al.
# Submitted via: KiC 2.1 - (C) 1996-1998 Alwin Hoogerdijk
# Normalized: r1:DSETVAR1
#
DISCID=dc0d5511
DTITLE=Various Artist - Guitar Player Presents Legends Of Guitar-Electric Blues, Vol. 1
DYEAR=1900
DGENRE=
TTITLE0=Muddy Waters - Rollin' And Tumblin'-Pt. 1
TTITLE1=Otis Rush and His Band - All Your Love (I Miss Loving)
TTITLE2=B. B. King - You Done Lost Your Good Thing Now
TTITLE3=T-Bone Walker and His Band - Strollin' With Bones
TTITLE4=Bobby "Blue" Bland - Stormy Monday Blues
TTITLE5=Howlin' Wolf - 300 Pounds Of Joy
TTITLE6=Eddy Taylor - Find My Baby
TTITLE7="Pee Wee" Crayton and His Guitar - Texas Hop
TTITLE8=Little Junior's Blue Flames - Love My Baby
TTITLE9=Albert King - Personal Manager
TTITLE10=Elmore James and His "Broom Dusters" - Dust My Blues
TTITLE11=Guitar Slim and His Band - The Story Of My Life
TTITLE12=Charlie Musselwhite's South Side Band - Help Me
TTITLE13=Johnny Winter - Mean Town Blues
TTITLE14=Lightning Hopkins - Tell Me Pretty Mama
TTITLE15=Earl Hooker - The Hucklebuck
TTITLE16=Hound Dog Taylor and The Houserockers - See Me In The Evening
EXTD=
EXTT0=
EXTT1=
EXTT2=
EXTT3=
EXTT4=
EXTT5=
EXTT6=
EXTT7=
EXTT8=
EXTT9=
EXTT10=
EXTT11=
EXTT12=
EXTT13=
EXTT14=
EXTT15=
EXTT16=
PLAYORDER=
